<svg xmlns="http://www.w3.org/2000/svg" width="585" height="491" viewBox="0 0 585 491">
    <g fill="none" fill-rule="evenodd">
        <path fill="#ACB4D9" d="M344.256 297.374l-77.899-32.78-60.771 41.007 32.267 13.576c-.712.602-1.925 1.304-2.175 1.418-1.131.515-2.577.9-3.98 1.159-2.715.5-6.046.418-7.98 1.722-3.022 2.041-.643 5.745 5.307 8.397.172.078.348.153.525.229 6.334 2.664 13.99 3.124 17.1 1.023 2.526-1.704.583-4.411 2.092-6.392.123-.165 1.42-1.267 2.519-1.914l32.225 13.56 25.144-16.965c-.102-.048-.21-.098-.322-.148-1.243-.553-3.026-1.149-3.31-1.212-3.75-.824-8.82.176-12.06-1.188-3.97-1.767-3.16-5.776 1.726-9.073 4.939-3.333 12.176-4.675 16.165-2.998 2.474 1.102 2.377 2.838 3.337 4.262.503.748 1.243 1.52 2.228 2.13.119.072.568.297 1.137.551.476.213 1.036.445 1.558.62l25.167-16.984zM261.573 412.464c-1.965-1.328-5.353-1.243-8.11-1.751-1.43-.264-2.898-.654-4.049-1.18-.25-.114-1.486-.827-2.209-1.439l32.795-13.8-25.553-17.242c.104-.052.215-.103.33-.153 1.262-.563 3.073-1.169 3.361-1.233 3.808-.837 8.963.179 12.39-1.263 3.901-1.74 3.08-5.816-1.888-9.165-5.02-3.389-12.377-4.753-16.55-2.994-2.393 1.067-2.296 2.831-3.27 4.276-.513.763-1.266 1.549-2.268 2.167-.12.073-.58.305-1.163.565-.482.216-1.047.448-1.573.626l-25.584-17.264-79.178 33.318 61.768 41.678 32.758-13.783c1.112.658 2.43 1.777 2.559 1.944 1.531 2.016-.444 4.766 2.123 6.5 3.164 2.133 10.944 1.666 17.38-1.041.182-.076.36-.155.535-.232 6.047-2.696 8.468-6.46 5.396-8.534M322.816 334.748l32.755-13.783c1.116.657 2.434 1.777 2.562 1.943 1.532 2.017-.443 4.768 2.125 6.501 3.164 2.133 10.943 1.666 17.379-1.041.18-.076.357-.151.53-.229 6.05-2.698 8.474-6.464 5.399-8.539-1.965-1.324-5.352-1.24-8.111-1.75-1.427-.263-2.895-.654-4.047-1.179-.25-.116-1.485-.829-2.21-1.44l32.797-13.8 61.768 41.68-79.18 33.318-25.553-17.243c.1-.05.207-.098.317-.147 1.263-.563 3.084-1.173 3.372-1.238 3.812-.836 8.967.181 12.259-1.205 4.035-1.798 3.211-5.871-1.754-9.223-5.02-3.388-12.376-4.753-16.429-3.047-2.516 1.12-2.418 2.885-3.391 4.33-.514.763-1.265 1.549-2.267 2.167-.12.07-.581.304-1.164.563-.481.216-1.047.449-1.572.626l-25.585-17.264zM428.328 425.265l-32.23-13.56c-1.095.645-2.39 1.749-2.516 1.911-1.507 1.984.436 4.69-2.09 6.395-3.113 2.099-10.767 1.64-17.099-1.024-.178-.075-.354-.151-.526-.228-5.95-2.653-8.331-6.358-5.31-8.397 1.934-1.306 5.268-1.222 7.98-1.722 1.406-.26 2.85-.644 3.98-1.16.248-.114 1.464-.817 2.174-1.417l-32.265-13.579-25.17 16.986c-.52-.175-1.08-.407-1.557-.62-.569-.252-1.017-.48-1.133-.551-.988-.61-1.729-1.382-2.233-2.13-.959-1.425-.863-3.16-3.215-4.209-4.109-1.73-11.344-.388-16.286 2.946-4.885 3.296-5.693 7.305-1.855 9.016 3.371 1.421 8.441.418 12.188 1.244.286.063 2.066.658 3.308 1.212.114.05.222.1.325.15l-25.143 16.963 77.902 32.78 60.77-41.006z"/>
        <path fill="#ACB4D9" d="M245.07 291.186c0 10.934-19.922 19.797-44.496 19.797s-44.496-8.863-44.496-19.797c0-10.935 19.922-19.797 44.496-19.797s44.496 8.862 44.496 19.797"/>
        <path fill="#550A32" d="M212.552 289.86L213.282 289.725 214.012 283.597 212.095 281.328z"/>
        <path fill="#151E35" d="M211.673 289.362L212.552 289.86 212.415 279.831 210.866 279.478z"/>
        <path fill="#E69871" d="M218.416 276.739l1.628 5.377s2.216 5.18 4.043 7.224c0 0 3.298 4.521-2.872 4.22 0 0-6.582-.35-6.482-4.572.086-3.632-3.25-8.139-3.25-8.139-1.228-2.124.013-3.848.43-4.334l1.14-1.303 5.536-.968-.173 2.495z"/>
        <path fill="#151E35" d="M224.445 291.007c-2.72.509-5.475-.502-7.167-2.17-1.712-1.684-3.664-7.852-3.016-5.803.267.846-1.745-6.65-1.208-7.823l-1.142 1.304c-.416.486-1.77 2.324-.543 4.449 0 0 3.45 4.392 3.364 8.023-.1 4.223 6.482 4.573 6.482 4.573 3.703.18 3.995-1.376 3.637-2.649-.13.039-.265.07-.407.096"/>
        <path fill="#151E35" d="M227.546 292.812s.93 1.756-2.019 1.756c0 0-11.043-.702-11.038-5.447l-.005-3.821s.869 5.455 7.689 5.468c0 0 3.028 0 1.464-1.93l3.91 3.974z"/>
        <path fill="#122355" d="M209.77 37.147c0 4.059-3.289 7.349-7.348 7.349-4.059 0-7.349-3.29-7.349-7.35 0-4.058 3.29-7.349 7.35-7.349 4.058 0 7.348 3.29 7.348 7.35"/>
        <path fill="#F3AA81" d="M207.69 71.018h14.474c-.657-2.107-2.02-7.561.09-11.275L207.63 50.14s2.6 16.114.06 20.878"/>
        <path fill="#E38D6E" d="M209.313 61.924c.866 2.217 2.268 3.296 4.557 4.019 2.533.802 4.968.96 7.35.544-.23-2.221-.108-4.737 1.033-6.744L207.63 50.14s.791 4.916 1.074 10.118c.198.556.392 1.113.609 1.666"/>
        <path fill="#F3AA81" d="M225.036 63.096l.769-2.178 1.874-6.405c.26-1.016.381-2.405.033-3.399-.42-1.194-.744-3.14-.298-5.316 1.192-5.828-1.395-8.87-1.395-8.87-3.401-5.359-11.43-5.333-11.43-5.333-9.925.515-10.735 10.126-10.735 10.126-1.594 6.395 3.505 11.703 3.514 11.713.645.67.714 1.76 1.026 2.59.332.89.835 1.717 1.456 2.43 1.396 1.6 3.217 3.132 5.088 4.085 1.774.903 5.211 1.83 7.652 1.804 1.012-.01 2.007.002 2.446-1.247"/>
        <path fill="#550A32" d="M178.708 291.012L179.443 291.117 182.1 285.548 181.014 282.782z"/>
        <path fill="#151E35" d="M178.036 290.257L178.708 291.012 181.796 281.466 180.442 280.637z"/>
        <path fill="#F3AA81" d="M188.473 280.465c-.147 4.48-.48 9.512 1.328 13.754 0 0 1.673 5.34-4.075 3.076 0 0-6.12-2.444-4.672-6.41 1.246-3.412-.468-8.751-.468-8.751-.48-2.406 1.248-3.64 1.798-3.967l1.5-.87h5.753l-1.164 3.168z"/>
        <path fill="#151E35" d="M189.606 295.913c-2.74-.39-5.027-2.232-6.094-4.353-1.08-2.146-.95-8.615-.994-6.466-.018.888.48-6.86 1.366-7.797l-1.5.87c-.55.326-2.422 1.631-1.942 4.04 0 0 1.858 5.266.612 8.678-1.449 3.966 4.672 6.41 4.672 6.41 3.45 1.36 4.226-.022 4.296-1.343-.136-.005-.274-.018-.416-.039"/>
        <path fill="#151E35" d="M191.964 298.618s.316 1.96-2.476 1.015c0 0-10.235-4.207-8.708-8.7l1.222-3.62s-.928 5.444 5.527 7.644c0 0 2.868.972 2.006-1.358l2.429 5.019z"/>
        <path fill="#F3AA81" d="M194.828 213.5c-7.34 13.552-8.638 19.068-9.943 29.374-.762 5.994-.509 31.241-1.295 35.008-.328 1.56 5.606.704 5.606.704 1.085-2.641 18.364-60.65 18.364-60.65s1.932-6.01.329-7.054c-8.057-5.248-9.862-3.29-13.06 2.617"/>
        <path fill="#1D2632" d="M189.374 279.797c1.085-2.641 18.186-61.861 18.186-61.861s1.932-6.01.329-7.054c-8.057-5.248-9.862-3.29-13.06 2.617-7.34 13.553-8.639 19.069-9.944 29.375-.762 5.994-1.999 30.37-2.785 34.137 0 0 4.39 5.231 7.274 2.786M227.775 115.489s5.64 23.872 4.884 26.48c-2.181 7.512-22.418 18.053-40.87 2.681 0 0 4.218-17.657 12.978-32.593 0 0 3.219 3.325 23.008 3.432"/>
        <path fill="#644698" d="M224.9 66.978s7.382 14.272 10.678 22.1c-1.381 9.179-6.367 22.794-8.372 25.665-4.392 6.292-24.472.675-24.472.675l-5.787-19.323c16.894-6.066 7.998-23.868 7.998-23.868l2.648-1.672s2.703 8.75 13.698 8.437c0 0 3.612-2.352.954-12.332 0 0 1.587.049 2.655.318"/>
        <path fill="#E69871" d="M206.523 148.397s1.943 38.514 9.068 59.228c1.061 3.088 13.238-1.016 13.238-1.016s6.144-33.138 5.776-46.867c-.209-7.76-2.985-24.492-2.985-24.492s-22.835-2.985-25.097 13.147"/>
        <path fill="#E69871" d="M215.941 207.486l12.888-.877s-7.92 65.745-8.637 68.509c0 0-5.54 2.004-5.428.412.269-3.839-4.353-33.343-4.494-39.384-.227-9.704.154-15.834 5.671-28.66"/>
        <path fill="#161D29" d="M206.523 148.397s1.943 38.514 9.068 59.228c1.061 3.088 13.238-1.016 13.238-1.016s6.144-33.138 5.776-46.867c-.209-7.76-2.985-24.492-2.985-24.492s-22.835-2.985-25.097 13.147"/>
        <path fill="#161D29" d="M221.789 275.53c1.307-2.538 7.04-68.921 7.04-68.921l-12.888.877c-5.517 12.826-5.898 18.956-5.671 28.66.14 6.04 3.066 35.545 2.797 39.384 0 0 7.005 3.333 8.722 0"/>
        <path fill="#E69871" d="M248.213 113.731l-9.77-35.42c-3.518-9.475-8.766-9.707-8.766-9.707-10.06 1.522-3.62 19.176-3.62 19.176l12.417 29.421 9.74-3.47zM276.527 140.195c-4.223-3.134-4.516-3.985-5.155-5.26-2.754-5.47 4.271-4.27 5.986-3.605.984.383.689 2.813 3.41 6.235 0 0 4.538 3.617 5.79 3.593 0 0 1.247.37 1.112 1.288 0 0-3.79 1.545-11.143-2.251"/>
        <path fill="#E69871" d="M247.456 111.672l28.612 21.646c.79 3.945-1.018 4.228-1.018 4.228l-23.078-10.5c-9.881-4.278-13.32-9.2-13.32-9.2s-4.039-3.782 2.39-7.576c0 0 2.92-1.68 6.414 1.402M276.545 131.084s-1.252 2.422 2.018 2.266l3.46-1.909s1.043-.374.838-1.347c0 0-.295-.583-1.365-.206l-4.95 1.196z"/>
        <path fill="#F3AA81" d="M190.763 151.618s.148 38.528 5.231 59.836c.756 3.177 12.364 2.203 12.364 2.203s7.575-36.437 8.54-50.136c.546-7.744 2.095-21.295 2.095-21.295s-27.175-2.694-28.23 9.392M196.384 76.859c-5.923 4.33-2.894 10.84-2.894 10.84l11.185 27.167s18.139 6.169 22.53-.123c2.005-2.871 3.861-10.488 6.295-21.471 1.655-7.464 1.768-20.503-2.434-24.364-2.423-2.228-10.266-2.182-10.324-2.447l-12.706 4.094-11.652 6.304z"/>
        <path fill="#F3AA81" d="M220.332 112.647c1.074-.194 6.874 2.096 6.874 2.096s4.176 17.802 4.414 20.507c.236 2.705-18.378 16.717-39.172 8.74 0 0 10.5-24.767 12.035-29.945 1.762-5.946 15.849-1.398 15.849-1.398"/>
        <path fill="#644698" d="M230.43 77.989s6.138 7.227 6.653 12.596c.287 2.99-3.488 7.995-5.376 9.84-1.339 1.307-9.266-17.448-1.277-22.436"/>
        <path fill="#1D2632" d="M197.542 138.09s-7.332 1.629-6.67 15.069c.644 13.125 24.541 15.854 27.61 2.63 3.301-14.234-7.891-22.578-20.94-17.699"/>
        <path fill="#213570" d="M208.478 57.139c-.05-4.533.064-4.254.064-4.254.106-1.325 2.704 1.53 2.65-.195-.245-7.896 2.623-11.656 3.746-12.265 3.046-1.648 6.262-2.123 8.81-1.67 3.993.71 3.84 6.026 3.84 6.026 3.403-19.463-18.302-13.244-18.302-13.244-10.572 2.777-9.482 12.738-9.482 12.738-1.296 10.698 8.839 16.878 8.839 16.878l-.165-4.014z"/>
        <path fill="#F3A57A" d="M209.173 55.597c-.355.274-.81.43-1.378.419-1.537-.021-2.814-1.46-2.85-3.21-.034-1.746 1.179-3.147 2.714-3.126.73.011 1.398.342 1.905.87.738.772.761 2.197.587 3.178-.139.784-.448 1.459-.978 1.869"/>
        <path fill="#E9916D" d="M208.28 51.309c-.09-.919-1.948-.042-1.667.477.163.297.489.515.745.724.35.285.522.547.57 1.004.006.052.017.21-.036.248-.24.167-1.029-.729-1.201-.919-.34-.372-.387-1.008-.223-1.468.173-.49.495-.72 1.018-.688.418.025.843.054.819.572-.001.01-.02.097-.025.05"/>
        <path fill="#E9916D" d="M207.686 52.262c.194-.193.379-.032.576.11.183.135.285.325.332.54.107.478.042 1.117-.23 1.534-.222.335-.594.541-.998.53-.56-.016-.726-.51-.747-.984-.006-.125-.016-.425.107-.504.135-.085.23.123.32.213.125.117.307.164.473.179.318.026.63-.136.832-.372.035-.042.068-.092.085-.143-.001.309-.017.376-.05.207-.023-.079-.06-.151-.105-.219-.129-.214-.348-.36-.493-.565-.07-.094-.2-.426-.102-.526"/>
        <path fill="#402210" d="M217.977 48.835c.054.55-.206 1.026-.579 1.062-.373.036-.72-.38-.772-.93-.053-.55.206-1.025.58-1.06.373-.037.718.38.771.928M225.613 47.807c.02.552-.266 1.01-.642 1.023-.374.015-.694-.422-.714-.973-.02-.552.266-1.012.641-1.024.375-.015.695.421.715.974"/>
        <path fill="#213570" d="M214.687 48.095c1.435-1.509 4.81-1.388 4.81-1.388s.226-.013.165-.7c0 0-.017-.608-.503-.549 0 0-4.294-.284-4.472 2.637M227.55 45.21c-1.497-1.213-4.253-.267-4.253-.267-.485.071-.342.662-.342.662.12.679.342.63.342.63s2.279-.701 4.063-.287c.066-.245.133-.49.19-.738"/>
        <path fill="#FEFEFE" d="M224.647 55.81l-5.437 1.005c-.286.053-.4.223-.245.376 0 0 1.564 1.564 3.326 1.234 1.763-.33 2.644-2.353 2.644-2.353.077-.177-.055-.279-.288-.263"/>
        <path fill="#E9916D" d="M220.742 54.097c2.85-.206 3.006-.953 3.006-.953l-1.495-3.004s.344 3.004-1.51 3.957"/>
        <path fill="#1D2632" d="M190.763 151.618s.148 38.528 5.231 59.836c.756 3.177 12.364 2.203 12.364 2.203s7.575-36.437 8.54-50.136c.546-7.744 2.095-21.295 2.095-21.295s-27.175-2.694-28.23 9.392"/>
        <path fill="#1D2632" d="M227.775 115.489s5.64 23.872 4.884 26.48c-2.181 7.512-22.418 18.053-40.87 2.681 0 0 4.218-17.657 12.978-32.593 0 0 3.219 3.325 23.008 3.432"/>
        <path fill="#644698" d="M202.734 115.418s20.65 6.362 25.041.07c2.005-2.871 6.422-17.232 7.803-26.41-3.296-7.828-10.678-22.1-10.678-22.1-1.068-.269-2.655-.318-2.655-.318 2.658 9.98-.954 12.332-.954 12.332-10.995.312-13.698-8.437-13.698-8.437l-2.648 1.672s8.19 17.013-7.619 24.793c0 0-.379 18.253 5.408 18.398"/>
        <path fill="#FEFEFE" d="M209.246 55.917c0 .518-.421.94-.94.94-.52 0-.941-.422-.941-.94 0-.52.42-.942.94-.942s.941.422.941.942"/>
        <path fill="#F3AA81" d="M205.253 79.34c3.212 3.415 3.048 8.788-.368 11.998-3.415 3.213-14.148 9.34-14.248 4.65-.197-9.212.162-14.218 3.578-17.43 3.416-3.214 7.825-2.634 11.038.782"/>
        <path fill="#F3AA81" d="M205.636 87.13l-7.418-4.277-7.455 4.665s-4.364 27.801-2.757 34.164c1.714 6.78 4.827 1.785 6.301-.07 0 0 12.168-29.08 11.33-34.482"/>
        <path fill="#F3AA81" d="M189.133 124.396s13.34 9.527 25.18 14.708c0 0 3.912-1.643 1.956-3.45-3.322-3.072-17.843-16.977-21.196-20.053-5.94-2.03-5.94 8.795-5.94 8.795"/>
        <path fill="#F3AA81" d="M221.063 144.422c-4.827-2.086-5.307-2.85-6.22-3.942-3.931-4.695 3.182-5.135 5.004-4.879 1.045.149 1.313 2.583 4.746 5.292 0 0 5.242 2.481 6.458 2.172 0 0 1.297.074 1.374 1 0 0-3.335 2.37-11.362.357"/>
        <path fill="#F3AA81" d="M219.62 135.544s-2.067 1.776 1.023 2.858l3.923-.472s1.106.044 1.28-.936c0 0-.054-.65-1.188-.702l-5.037-.748z"/>
        <path fill="#0093CA" d="M303.206 170.132c-.057-.015-.115-.026-.174-.04-.089-.019-.177-.04-.268-.057-.064-.013-.13-.023-.195-.034-.062-.011-.126-.023-.189-.032l-.133 15.183-25.143 16.964.158-18.119 20.83-14.052c-.306.035-.613.079-.924.13-.067.01-.134.022-.202.034-.118.02-.236.042-.355.064l-.24.048c-.115.023-.23.047-.345.073l-.217.048c-.182.042-.365.085-.547.13-.048.014-.097.025-.145.037-.225.059-.45.121-.674.187l-.12.036c-.31.091-.62.19-.928.294l-.032.013c-.31.106-.619.219-.924.338-.022.01-.045.018-.066.026-.347.137-.691.282-1.03.435-.016.006-.032.012-.047.02-.343.155-.681.32-1.013.491-.012.005-.023.01-.033.017-.337.173-.667.357-.991.547l-.018.011c-.328.193-.65.396-.96.607-2.776 1.872-4.236 3.975-4.252 5.765l.16-18.117c.015-1.791 1.475-3.893 4.25-5.767.312-.21.633-.412.961-.607l.018-.01c.324-.191.653-.373.99-.548l.035-.016c.331-.173.668-.335 1.01-.491l.052-.021c.337-.153.678-.297 1.024-.433.006-.003.013-.007.02-.008l.058-.021c.3-.118.602-.229.907-.333.014-.007.029-.011.043-.017.305-.104.61-.199.918-.29.026-.01.053-.018.08-.027l.052-.014c.223-.065.446-.125.668-.183.05-.015.1-.026.15-.04.18-.044.36-.088.538-.128l.108-.026c.04-.01.08-.017.12-.025l.33-.07.254-.05c.112-.02.223-.041.335-.06.06-.01.118-.022.177-.033l.044-.005c.31-.051.617-.093.921-.13l.08-.012.059-.004c.267-.03.532-.055.793-.073l.067-.006.089-.003c.246-.016.492-.028.734-.033l.009-.001h.012c.229-.003.453-.002.676.003h.091l.077.005c.225.008.446.02.664.035.006.002.012.002.019.002.017.002.033.005.05.006.226.02.446.045.664.075.024.003.05.004.074.009l.051.008c.087.013.172.03.258.043.069.012.139.023.207.038.085.016.167.033.249.053.057.013.115.022.17.037l.022.005c.195.048.384.1.568.159.043.013.085.027.128.042.185.061.367.127.541.2.14.062.27.127.393.192l.108.06c.043.026.09.05.132.074.037.023.07.047.105.07.045.027.089.055.131.085.07.046.134.093.197.141.037.03.075.057.11.086l.038.028c.075.062.145.126.212.19l.026.026c.053.052.105.103.152.157v.004h.001v-.004c.016.016.029.033.043.05.024.026.046.052.069.08.048.056.093.112.136.17l.06.081.03.04c.02.03.038.061.058.09.037.056.074.113.109.17l.073.126.095.174c.009.018.02.034.028.051l.028.06c.051.102.099.203.146.306l.023.05c.061.138.121.278.18.417l.118.27.055.122c.054.12.11.239.168.356.03.06.063.118.095.176l.052.096c.052.09.107.18.167.267.038.057.08.113.12.17.056.078.115.157.178.236.026.034.052.07.08.103.084.105.173.208.267.31l.016.02c.098.106.203.211.31.314.03.03.064.06.096.088.079.075.16.147.245.22l.122.102c.086.07.174.137.265.205.04.029.079.06.12.088.132.094.267.186.41.274l.024.014.043.024.027.013c.019.012.038.022.061.034l.043.023.072.035.05.026c.028.015.055.027.086.042l.069.033c.03.015.057.03.088.044l.109.051.065.03.126.06.068.031.204.092c.477.212 1.037.444 1.56.62l25.166-16.984-.158 18.117-25.168 16.984c-.521-.176-1.083-.406-1.559-.618-.07-.033-.14-.063-.206-.093l-.035-.017-.157-.074c-.021-.008-.039-.018-.059-.027l-.116-.055-.071-.034c-.03-.014-.06-.028-.088-.043-.019-.008-.036-.018-.054-.026l-.083-.042-.041-.02-.073-.038c-.012-.006-.021-.013-.032-.017-.02-.012-.04-.021-.057-.03l-.021-.014c-.013-.006-.027-.013-.036-.02l-.007-.004c-.142-.087-.277-.178-.408-.272-.043-.03-.083-.06-.125-.092-.089-.066-.174-.132-.258-.2-.022-.019-.046-.035-.067-.052l-.06-.054c-.083-.07-.162-.14-.24-.212-.033-.032-.068-.063-.1-.095-.108-.103-.21-.208-.307-.312l-.003-.003-.019-.023c-.093-.1-.18-.203-.263-.304-.027-.034-.053-.07-.08-.103-.063-.079-.123-.16-.18-.24l-.044-.058-.075-.11c-.058-.086-.114-.175-.165-.265l-.069-.126c-.025-.046-.052-.091-.075-.138l-.003-.007c-.06-.12-.117-.24-.172-.362l-.044-.101c-.048-.108-.095-.215-.141-.323-.053-.124-.107-.25-.163-.374l-.031-.07c-.045-.096-.09-.192-.138-.289l-.06-.117c-.03-.057-.06-.113-.093-.17-.024-.043-.048-.086-.074-.128-.034-.058-.071-.113-.109-.17-.029-.043-.056-.087-.087-.13l-.061-.082c-.043-.056-.087-.112-.134-.167-.023-.027-.047-.056-.072-.083-.06-.07-.125-.137-.193-.205-.01-.008-.018-.017-.028-.027-.077-.074-.162-.147-.25-.22l-.109-.083c-.062-.049-.128-.095-.197-.142-.042-.029-.087-.058-.131-.086-.076-.049-.154-.096-.237-.142l-.108-.06c-.124-.066-.253-.131-.392-.193-.174-.074-.356-.138-.542-.2-.042-.014-.085-.029-.129-.041-.184-.06-.373-.113-.569-.16"/>
        <path fill="#45ACE2" d="M199.203 169.338l.159-18.119 32.267 13.577-.132 15.078.031.003.21.025c.257.028.513.054.766.075.026.001.05.004.076.006.186.015.37.028.555.038l.207.01c.138.007.277.014.413.019l.153.003c.324.008.644.011.957.004.042 0 .083-.001.125-.003.262-.006.518-.016.77-.032l.06-.003c.235-.016.464-.038.69-.063l.17-.02c.193-.021.383-.049.567-.078l.068-.01c.2-.034.394-.072.586-.114.048-.01.097-.02.145-.032.179-.042.353-.087.521-.136l.074-.019.104-.034c.093-.028.185-.058.274-.088.047-.016.091-.034.137-.05.076-.029.152-.056.226-.087.042-.016.084-.035.124-.051l.214-.097.117-.056.21-.111.096-.053c.097-.057.192-.115.283-.176 1.21-.817 1.394-1.865 1.424-2.953l.008-.883c.007-.894.069-1.781.66-2.557.123-.164 1.42-1.267 2.518-1.914l32.226 13.56-.158 18.12-32.227-13.561c-1.098.645-2.394 1.748-2.518 1.912-.53.699-.634 1.484-.655 2.286l-.009.879c-.01 1.184-.115 2.343-1.429 3.23-.09.06-.184.12-.281.176l-.099.053-.207.11-.12.057c-.069.032-.14.065-.212.095l-.123.053-.07.029c-.051.02-.106.039-.16.058l-.133.05-.269.087-.112.035-.019.006c-.015.004-.032.007-.047.012-.172.05-.35.095-.53.136l-.077.02c-.02.005-.043.008-.063.011-.192.042-.389.08-.59.114l-.012.004c-.014.001-.03.003-.044.006-.19.03-.384.057-.582.08-.028.004-.055.009-.084.012l-.078.008c-.227.024-.457.045-.693.061l-.016.002-.047.001c-.252.017-.51.027-.772.034-.027 0-.052.003-.079.003h-.04c-.311.005-.631.003-.956-.004-.026-.002-.05 0-.076-.002-.027 0-.055-.002-.08-.004-.136-.003-.274-.009-.412-.017-.069-.003-.137-.005-.207-.01-.197-.01-.394-.024-.593-.042l-.033-.001h-.002c-.255-.021-.513-.048-.774-.076l-.202-.024c-.229-.027-.458-.056-.689-.09l-.085-.011c-.01 0-.019-.004-.028-.004-.215-.032-.429-.066-.644-.101l-.11-.021c-.18-.03-.36-.063-.542-.097l-.242-.05c-.137-.027-.275-.054-.413-.083l-.272-.061c-.128-.028-.258-.058-.387-.089-.034-.006-.068-.014-.102-.022l-.09-.023c-.348-.085-.698-.175-1.047-.273l-.137-.04c-.356-.1-.71-.207-1.061-.32l-.108-.036c-.362-.12-.723-.243-1.08-.376-.021-.008-.042-.017-.063-.023-.372-.139-.741-.285-1.104-.438-.179-.075-.354-.152-.526-.227-.245-.11-.482-.22-.714-.334-.08-.038-.156-.077-.235-.115-.152-.076-.3-.152-.446-.227-.087-.045-.17-.092-.255-.137-.134-.074-.266-.147-.394-.22l-.242-.139c-.048-.029-.099-.056-.147-.085l-.236-.148c-.069-.042-.14-.086-.208-.13-.142-.09-.28-.183-.416-.276-.043-.029-.09-.06-.132-.09-.175-.123-.343-.245-.504-.369-.042-.032-.08-.064-.121-.097-.096-.073-.192-.15-.283-.225l-.05-.044c-.118-.099-.229-.199-.338-.298-.048-.046-.1-.089-.147-.134-.152-.145-.297-.288-.43-.433v-.002c-.118-.127-.225-.254-.327-.38-.032-.041-.06-.082-.092-.122-.053-.07-.11-.14-.158-.209l-.037-.057-.07-.105c-.058-.09-.111-.178-.161-.266-.021-.038-.043-.074-.062-.111-.012-.021-.025-.042-.035-.063-.048-.093-.09-.185-.13-.279-.007-.014-.011-.03-.018-.046-.026-.065-.052-.129-.074-.193-.014-.043-.025-.083-.036-.123l-.02-.062c-.024-.094-.047-.186-.062-.277-.004-.02-.005-.037-.008-.057l-.008-.058c-.013-.105-.023-.207-.023-.31v-.032l.114-12.896-16.934-7.124z"/>
        <path fill="#8CBEE6" d="M338.032 142.993l-77.9-32.78-60.77 41.006 32.267 13.577c-.712.601-1.926 1.304-2.175 1.418-1.131.515-2.577.9-3.98 1.158-2.715.501-6.047.42-7.98 1.723-3.023 2.04-.643 5.744 5.306 8.397.172.077.349.153.526.228 6.333 2.664 13.99 3.125 17.1 1.024 2.526-1.704.583-4.412 2.091-6.393.124-.164 1.421-1.267 2.52-1.914l32.225 13.56 25.144-16.964c-.102-.048-.21-.098-.322-.148-1.243-.554-3.026-1.15-3.31-1.212-3.75-.824-8.82.175-12.06-1.188-3.97-1.767-3.16-5.777 1.726-9.073 4.939-3.333 12.176-4.676 16.164-2.999 2.474 1.103 2.378 2.838 3.338 4.262.503.75 1.242 1.522 2.228 2.13.118.073.568.298 1.136.552.477.212 1.037.444 1.56.62l25.166-16.984z"/>
        <path fill="#85264C" d="M266.762 216.754c0 .045-.002.088-.004.134-.001.047-.002.096-.006.143l-.012.117c-.006.045-.01.092-.018.137-.007.045-.017.09-.025.134l-.02.1c-.012.047-.025.093-.038.136l-.029.097-.021.054c-.043.127-.094.25-.154.369-.002.002-.003.007-.005.008-.059.114-.128.228-.202.336l-.037.055c-.075.106-.16.21-.25.31-.025.028-.05.056-.077.083-.03.03-.057.061-.087.089l-.105.098c-.032.028-.065.06-.098.086-.03.026-.062.052-.094.076-.057.045-.117.09-.176.135l-.097.068c-.066.045-.134.09-.204.132l-.092.058c-.06.037-.124.07-.188.103l-.105.06c-.101.05-.206.1-.314.15-.411.171-.846.31-1.302.419-.362.087-.735.158-1.12.213-.365.053-.74.093-1.12.125-.532.042-1.074.068-1.623.082-1.202.036-2.434.023-3.631.057-.54.016-1.073.04-1.592.082l.16 18.416c.521-.042 1.054-.067 1.594-.082 1.198-.033 2.43-.022 3.63-.056.55-.015 1.092-.04 1.623-.084.381-.03.755-.072 1.12-.123.384-.057.759-.128 1.121-.215.455-.11.89-.246 1.302-.42.109-.048.214-.098.316-.151l.085-.047c.072-.037.141-.076.209-.116.007-.005.014-.008.021-.011l.059-.038c.073-.044.144-.09.213-.137l.097-.068c.059-.045.119-.09.175-.135l.055-.042.04-.035c.033-.03.066-.057.097-.087.036-.033.071-.063.105-.097l.089-.088c.017-.022.036-.04.053-.057.009-.008.015-.017.023-.027.091-.1.175-.205.25-.31l.017-.02c.007-.011.011-.023.02-.034.074-.11.144-.222.203-.338v-.002l.003-.003c.062-.122.113-.246.156-.373.005-.01.01-.02.012-.03l.007-.02c.012-.037.022-.074.032-.11l.034-.122.022-.11c.008-.03.015-.06.02-.091l.005-.034c.007-.048.013-.098.018-.148.004-.035.009-.07.011-.105.004-.056.006-.11.008-.165 0-.028.003-.054.003-.08v-.036l-.162-18.415z"/>
        <path fill="#85264C" d="M251.914 221.285c-.007.001-.013.001-.02.005-.341.082-2.106.675-3.342 1.228-.114.05-.225.1-.329.152l.162 18.416c.104-.052.214-.102.33-.153 1.235-.55 3-1.143 3.34-1.229.008-.001.014-.001.02-.004.29-.063.588-.116.89-.162.363-.051.735-.091 1.112-.122l-.16-18.416c-.38.03-.75.07-1.113.124-.304.043-.601.098-.89.16"/>
        <path fill="#A83D6C" d="M273.937 258.328l-.161-18.416-32.795 13.8.134 15.325c-3.808.456-7.229.099-9.077-1.148-1.228-.83-1.415-1.89-1.446-2.995l-.008-.911c-.008-.908-.072-1.806-.67-2.593-.128-.167-1.446-1.286-2.558-1.944l-32.758 13.782.161 18.417 32.759-13.784c1.112.656 2.43 1.778 2.558 1.944.535.705.642 1.5.664 2.31l.008.912c.01 1.203.118 2.378 1.453 3.278 3.162 2.134 10.942 1.667 17.379-1.042.18-.076.36-.153.535-.232 4.281-1.907 6.746-4.353 6.728-6.354l-.116-13.107 17.21-7.242z"/>
        <path fill="#85264C" d="M264.304 220.021l.162 18.415c-3.427 1.444-8.581.428-12.391 1.264-.288.066-2.1.67-3.36 1.233-.116.05-.226.101-.33.153l-.162-18.416c.104-.051.215-.102.329-.152 1.262-.564 3.074-1.17 3.362-1.234 3.808-.836 8.964.18 12.39-1.263M194.598 273.228L132.83 231.551 132.991 249.966 194.759 291.645z"/>
        <path fill="#CC4677" d="M255.349 258.082c-1.965-1.327-5.354-1.242-8.11-1.75-1.43-.265-2.898-.654-4.05-1.18-.248-.115-1.485-.828-2.208-1.44l32.795-13.8-25.553-17.241c.104-.052.215-.103.329-.153 1.262-.563 3.074-1.169 3.362-1.233 3.808-.837 8.964.178 12.39-1.264 3.901-1.74 3.08-5.815-1.889-9.165-5.02-3.388-12.375-4.753-16.55-2.994-2.392 1.068-2.296 2.832-3.27 4.277-.512.763-1.265 1.549-2.267 2.167-.12.072-.58.304-1.163.565-.482.215-1.047.447-1.573.626l-25.584-17.265-79.178 33.318 61.768 41.678 32.758-13.783c1.112.659 2.43 1.778 2.559 1.945 1.531 2.015-.444 4.766 2.123 6.5 3.164 2.132 10.944 1.665 17.38-1.042.181-.076.36-.155.534-.232 6.048-2.696 8.47-6.46 5.397-8.534"/>
        <path fill="#ACB4D9" d="M419.382 328.673c0 10.935 19.921 19.797 44.496 19.797 24.573 0 44.495-8.862 44.495-19.797 0-10.934-19.922-19.798-44.495-19.798-24.575 0-44.496 8.864-44.496 19.798"/>
        <path fill="#19161B" d="M448.888 324.234c-3.142 3.164-8.324 4.852-8.324 4.855-4.369 1.11-6.938-1.796-6.938-1.796-.938-1.312.203-2.033.203-2.033 9.21-7.003 11.967-8.987 11.967-8.987h8.455c.414 3.4.184 4.77.184 4.77-.734 1.002-2.283 2.416-4.64 2.812-.173.03-.498-.227-.662-.16l-.245.539z"/>
        <path fill="#000" d="M433.789 325.29c.035.196.09.39.177.578.715 1.531 2.704 2.164 4.28 2.142 1.894-.028 3.615-.953 5.265-1.787 1.592-.805 2.987-1.824 4.36-2.958.953-.79 2.17-1.16 3.296-1.648 1.27-.556 2.228-1.417 3.326-2.241.004.91-.058 1.668-.058 1.668-.734 1-2.283 2.415-4.64 2.811-.173.03-.498-.227-.662-.16l-.245.539c-3.142 3.164-8.324 4.852-8.324 4.855-4.369 1.11-6.938-1.796-6.938-1.796-.834-1.165-.029-1.862.163-2.004"/>
        <path fill="#E69871" d="M455.183 247.702c-9.403 10.382-13.13-.599-13.13-.599l-1.164-63.809c-.122.95-.435-6.434 11.436-4.836 11.836 1.595 14.834 6.21 14.834 6.21s-6.513 44.072-11.976 63.034"/>
        <path fill="#E69871" d="M441.995 246.296s4.77 67.199 5.16 69.557c0 0 5.799 1.282 5.825-.054.066-3.218 6.687-42.543 6.773-47.6.215-12.806-3.086-15.227-6.379-23.853 0 0-11.404-8.432-11.38 1.95"/>
        <path fill="#003F74" d="M458.015 250.118c5.462-18.962 9.144-65.45 9.144-65.45s-2.998-4.615-14.834-6.21c-11.87-1.598-11.558 5.786-11.436 4.836 0 0-3.596 34.601-.303 66.048 0 0 10.14 5.386 17.429.776"/>
        <path fill="#F3AA81" d="M475.956 149.067c1.678 5.972 8.6 28.756 8.6 28.756-24.782 29.648-43.452 3.705-43.698 1.002-.296-3.237 3.318-15.597 3.973-28.927 0 0 6.757-10.403 31.125-.83"/>
        <path fill="#003F74" d="M441.001 186.246c-1.174-7.987 1.26-16.039 2.514-24.11h36.302c2.323 7.738 4.74 15.687 4.74 15.687s1.55 18.306-13.994 20.498c0 0-27.093 4.697-29.562-12.075"/>
        <path fill="#F3AA81" d="M482.298 249.1c-7.762 11.66-13.073 1.351-13.073 1.351l-12.59-62.16c.02.957.377-8.097 12.353-8.274 11.943-.177 15.59 3.942 15.59 3.942s.313 45.578-2.28 65.14"/>
        <path fill="#F3AA81" d="M469.045 249.661s12.467 70.813 13.201 73.087c0 0 5.925.409 5.753-.916-.412-3.193.657-47.845-.008-52.86-1.684-12.697-3.445-14.88-7.979-22.924 0 0-12.527-6.65-10.967 3.613"/>
        <path fill="#19161B" d="M481.68 321.38l-3.507 10.694s.724 9.573 8.402 3.64l2.287-2.216c1.166-.988.825-2.35.825-2.35l-.682-4.098-.814-5.67s-4.812-3.266-6.511 0"/>
        <path fill="#000" d="M486.574 334.348l2.288-2.215c.455-.385.68-.829.785-1.225l.04.24s.341 1.362-.825 2.35l-2.288 2.217c-7.677 5.932-8.402-3.641-8.402-3.641l.137-.417c.432 2.26 2.123 7.438 8.265 2.69"/>
        <path fill="#004696" d="M467.688 252.167c-4.373-12.835-12.627-65.92-12.627-65.92.02.955 2.472-12.68 14.449-12.855 11.943-.177 15.046 4.431 15.046 4.431s3.74 51.957 1.146 71.52c0 0-8.412 9.715-18.014 2.824"/>
        <path fill="#E69871" d="M446.67 108.232s-20.279 23.848-30.363 31.75c0 0-6.776-2.505-6.566-7.11 0 0 14.846-21.963 24.167-34.955 0 0 12.603-3.63 12.762 10.315"/>
        <path fill="#E69871" d="M412.677 130.88s-22.144 12.889-31.314 17.199c0 0-1.646 2.575 1.01 2.82 4.44.405 35.294-10.044 36.047-12.47 3.515-11.308-5.743-7.55-5.743-7.55M432.907 105.569c1.593 4.258 6.322 6.45 10.563 4.89 4.24-1.559 6.387-6.273 4.794-10.535-1.595-4.259-6.322-6.45-10.566-4.89-4.24 1.56-6.384 6.274-4.79 10.535"/>
        <path fill="#902450" d="M443.031 94.58s-7.229-2.535-12.197 4.56l-17.688 25.657s3.646 8.168 12.254 12.627c0 0 31.668-29.162 17.631-42.844"/>
        <path fill="#F3A57A" d="M463.522 85.966s1.46-2.809 4.68-8.196c0 0 6.854-7.038 3.014-15.885 0 0-2.108-7.395-15.043-6.322 0 0-1.237 20.36 7.35 30.403"/>
        <path fill="#F3AA81" d="M464.034 74.439s-2.176 20.29 2.466 21.825l-16.55-.985s2.602-6.131-.423-10.654l14.507-10.186z"/>
        <path fill="#E38D6E" d="M450.86 91.735c.275-4.636-.307-5.578-1.333-7.11l14.507-10.186s-.702 6.555-.457 12.496c-4.2 3.976-7.67 4.91-12.717 4.8"/>
        <path fill="#F3AA81" d="M438.28 94.54c-3.686 2.692-4.11 9.13-2.793 13.152 1.51 4.62 2.109 10.513 3.622 17.193 2.048 9.052 3.438 16.023 5.722 25.013 1.89 7.434 31.766 1.443 31.766 1.443l10.706-36.588s1.845-9.553-6.808-12.73c0 0-9.116-4.92-15.79-7.182-5.892-1.996-8.026-2.182-14.077-1.81 0 0-8.106.297-12.348 1.509"/>
        <path fill="#2A0F00" d="M443.603 57.102c-.854 3.892-1.823 5.926-.747 9.495.967 3.204.743 6.572 2.142 9.678 1.996 4.43 4.593 3.851 6.58-.224 2.032-4.172 4.151-9.809-.438-12.899-2.947-1.984-4.01-5.397-7.537-6.05"/>
        <path fill="#F3A57A" d="M446.158 87.516l-.688-2.294-1.742-8.483c-.219-1.068-.134-2.466.135-3.525.293-1.155.515-2.365.301-3.62-1.045-6.086 2.266-9.252 2.266-9.252 3.791-5.387 12.11-4.964 12.11-4.964 10.265 1.025 10.63 11.027 10.63 11.027 1.338 6.705-4.209 11.956-4.22 11.967-.443.418-.336 2.61-.494 3.224-.676 2.616-3.287 4.112-5.584 5.119-2.524 1.105-5.567 2.262-8.334 2.377-1.05.043-3.985-.26-4.38-1.576"/>
        <path fill="#2A0F00" d="M443.937 76.582c1.349 1.217 3.184.662 4.62 1.544.94.575 1.407.54 2.433.238.823-.241 1.483-.164 2.321.078.856.247 2.411.992 3.242 1.327 1.27.514 2.694.353 3.68-.85 1.032-1.257 1.424-1.516 1.91-3.022.892-2.775 3.697-2.943 5.629-1.386-1.266 2.375-2.816 3.855-2.822 3.861-.443.418-.337 4.42-.494 5.035-.676 2.615-3.287 4.112-5.583 5.118-2.525 1.106-6.374 1.259-9.141 1.373-1.05.044-3.18-1.065-3.574-2.382l-.688-2.294-1.742-8.483c-.03-.149-.042-.313-.061-.472.087.11.167.222.27.315"/>
        <path fill="#2A0F00" d="M443.75 60.72c2.325.003 2.297 1.946 4.078 3.03 3.816 2.32 9.737-1.082 12.813 2.68.277.34.535.735.78 1.194.907 1.696 1.177 3.745 1.467 5.625.086.555-.327 1.973.179 2.398.288.245.79.172 1.321.003.103.85-.58 1.504-.874 2.284-.294.784-.753 1.45-.338 2.242 1.072 2.036.25 1.7.346 5.79.664-.969 2.297-2.147 2.812-2.598 1.492-1.3 2.902-2.718 3.973-4.395 1.047-1.642 1.733-3.485 2.412-5.3 1.11-2.975 1.751-6.196.86-9.317 0 0-.702-7.253-6.77-8.03 0 0 .771-4.671-10.319-5.907 0 0-8.756.137-9.235-2.884 0 0-1.77 1.511-1.332 3.846 0 0-3.602 1.098-5.22-3.022 0 0-3 10.851 3.048 12.361"/>
        <path fill="#F3A57A" d="M463.366 80.083c.272.353.652.6 1.164.692 1.38.255 2.764-1.032 3.089-2.871.324-1.835-.528-3.53-1.907-3.783-.654-.119-1.311.108-1.853.573-.789.682-1.05 2.178-1.058 3.244-.004.854.158 1.619.565 2.145"/>
        <path fill="#E9916D" d="M464.854 75.753c.213-.963 2.073.206 1.709.718-.213.297-.585.487-.884.675-.409.26-.623.515-.734.992-.014.057-.045.225.007.271.235.208 1.184-.644 1.394-.822.407-.351.539-1.02.424-1.53-.122-.543-.434-.83-.996-.864-.444-.027-.9-.051-.94.504 0 .011.008.105.02.056"/>
        <path fill="#E9916D" d="M465.362 76.841c-.18-.231-.396-.083-.624.044-.213.117-.346.307-.424.53-.174.495-.187 1.181.05 1.659.192.384.56.652.991.692.596.053.836-.45.92-.95.022-.133.072-.452-.05-.55-.132-.105-.26.101-.366.185-.148.11-.347.135-.526.129-.343-.011-.653-.223-.837-.5-.03-.05-.058-.107-.07-.163-.04.328-.031.404.025.227.037-.082.084-.153.14-.219.164-.211.417-.34.596-.538.085-.09.265-.428.175-.546M449.11 76.077l2.798 1.08s-3.775.235-3.92-.861c0 0 .572-2.14 1.19-4.167 0 0-.483 3.787-.068 3.948"/>
        <path fill="#2A0F00" d="M453.992 72.129c0 .592.327 1.069.728 1.069.4 0 .726-.477.726-1.07 0-.59-.326-1.068-.726-1.068-.401 0-.728.478-.728 1.069M445.923 71.232c0 .592.327 1.069.728 1.069.4 0 .726-.477.726-1.07 0-.59-.325-1.068-.726-1.068-.401 0-.728.479-.728 1.069M453.236 70.054c-.26.053-.325-.298-.325-.298-.083-.34.017-.626.017-.626.106-.242.31-.317.31-.317.675-.093 1.982.074 3.091.404.613.183 1.608.639 1.673 1.206.019.168.035.46-.157.512 0 0-2.111-.654-4.61-.881M444.06 69.135c.735.013 2.028.08 3.608.377.237.123.393-.197.395-.197.17-.304.152-.608.152-.608-.035-.26-.212-.388-.212-.388-.623-.276-1.518-.434-2.674-.419-.346.005-.944.052-1.343.182 0 0-.078.214.075 1.053"/>
        <path fill="#FEFEFE" d="M447.549 79.493c-.228-.002-.352.104-.266.27 0 0 1.007 1.89 2.769 2.103 1.762.213 3.201-1.382 3.201-1.382.14-.155.018-.31-.267-.348 0 0-3.042-.387-5.437-.643"/>
        <path fill="#004696" d="M482.048 170.577s6.358 10.261 0 21.762c-6.358 11.501-25.769 7.308-25.825-7.588-.058-14.716 13.335-20.343 25.825-14.174"/>
        <path fill="#902450" d="M450.628 93.03s-8.106.298-12.348 1.51c-3.687 2.691-4.11 9.13-2.793 13.152 1.51 4.62 2.109 10.513 3.622 17.193 2.048 9.052-.535 15.67 1.749 24.659 1.891 7.434 41.424 0 41.424 0l5.021-34.791s1.845-9.553-6.808-12.73c0 0-8.703-4.777-15.376-7.038 0 0 1.041 7.038-10.432 5.094 0 0-7.01-1.69-4.06-7.049"/>
        <path fill="#902450" d="M482.282 149.544c1.677 5.971 3.004 26.104 3.004 26.104-4.545 18.847-46.354 5.287-46.602 2.583-.295-3.237.986-18.639 1.641-31.97 0 0 17.586-6.29 41.957 3.283"/>
        <path fill="#F3AA81" d="M469.957 115.644c2.728 5.549 12.854 33.552 16.109 37.98.866 1.176 9.211 6.554 11.09-.776-4.6-29.069-11.559-45.65-11.559-45.65s-8.126-6.777-14.618-.513c0 0-2.947 5.116-1.022 8.96"/>
        <path fill="#F3AA81" d="M468.807 110.684c-.898 5.326 2.69 10.372 8.017 11.27 5.326.898 10.371-2.69 11.27-8.016.898-5.327-2.691-10.371-8.017-11.271-5.325-.898-10.372 2.69-11.27 8.017"/>
        <path fill="#902450" d="M478.451 100.953s8.405 3.153 10.395 9.972l5.187 18.563s-6.797 9.886-16.93 9.558l-10.01-22.234s-6.733-12.488 11.358-15.86"/>
        <path fill="#E69871" d="M370.856 154.057l2.588-.071s-4.721 1.212-6.243-.322c0 0-.39-.241.215-.79 0 0 4.176-.142 6.012-.67 0 0-4.132.998-7.073.702 0 0-1.153-.757.09-1.443-.937-.363-.137-.981-.137-.981s.842-.472 2.812-1.085c0 0 3.025-.966 6.445-2.513 0 0-2.724-1.783-1.704-3.22l4.203 2.216 3.803 2.445.506 2.574-3.957 2.75s-3.845 1.546-6.022 1.62c0 0-6.247-.223-1.538-1.212"/>
        <path fill="#004696" d="M467.688 252.167l10.874 67.761s3.602 3.472 11.96 0l1.388-33.108s2.455-21.874-6.208-37.478c0 0-17.065-13.77-18.014 2.825"/>
        <path fill="#003F74" d="M458.015 250.118s4.628 6.696.48 31.831l-4.244 34.324s-4.882 2.924-10.376.133l-3.422-68.379s3.069-11.608 17.562 2.091"/>
        <path fill="#3D4576" d="M378.676 167.398c-.008-.823-.437-1.572-1.334-2.179-.143-.095-.294-.182-.45-.264-.05-.026-.1-.048-.151-.073-.113-.054-.228-.107-.347-.155-.03-.013-.056-.028-.086-.04-.025-.009-.053-.015-.078-.025-.19-.072-.384-.14-.585-.2l-.01-.003-.004-.001c-.204-.06-.414-.111-.628-.16l-.071-.02c-.03-.004-.06-.01-.09-.017-.253-.054-.51-.103-.774-.148-.007 0-.012-.001-.02-.003l-.065-.01c-.272-.043-.545-.083-.823-.119-.029-.004-.058-.01-.088-.013-.29-.039-.584-.07-.878-.104-.016-.004-.033-.005-.05-.007l-.713-.082c-.28-.032-.559-.064-.836-.1-.05-.008-.1-.012-.152-.019-.271-.037-.538-.075-.803-.117-.137-.023-.275-.046-.41-.071-.276-.05-.555-.108-.832-.168l-.15-.033c-.202-.045-.403-.094-.604-.144l-.015-.004c-.202-.052-.4-.107-.599-.163l-.19-.058c-.136-.04-.272-.084-.405-.127-.066-.023-.131-.044-.196-.068-.138-.046-.274-.097-.407-.146-.05-.021-.102-.039-.152-.058-.17-.068-.337-.137-.496-.21-.25-.115-1.485-.828-2.209-1.44l.162 18.415c.723.615 1.96 1.324 2.209 1.44.159.073.325.142.495.211.012.003.024.01.037.015l.115.041c.134.052.27.102.41.15.063.023.127.042.191.065.137.045.276.089.418.132.039.011.076.022.115.035.02.007.04.01.06.016.2.058.402.115.605.166l.003.002c.204.05.411.098.618.146.02.005.038.01.059.013l.083.018c.28.06.559.119.837.17.113.021.228.04.344.062.021.003.045.004.067.01.264.041.53.078.8.115l.16.021c.272.034.544.066.82.098.004 0 .006 0 .01.002l.54.06c.073.009.146.019.22.025.297.036.594.07.888.108.024.003.047.008.07.01.28.037.559.077.832.122.03.003.059.008.088.013.263.043.52.093.771.146l.164.037c.215.049.426.102.63.161.206.062.403.13.595.203.056.02.11.043.165.065.119.048.234.1.348.155l.148.073c.157.082.31.169.452.266.897.605 1.326 1.354 1.333 2.177l-.161-18.415z"/>
        <path fill="#424287" d="M351.993 207.953c.062-.015.126-.029.19-.042.084-.018.169-.039.256-.056l.213-.037c.06-.01.12-.022.18-.03l.136 15.431 25.554 17.244-.162-18.416-21.167-14.284c.308.037.62.08.933.132.073.01.144.024.216.037.116.02.233.04.35.064.084.015.169.032.253.05.112.022.224.045.336.07l.236.053c.18.042.363.085.545.131.05.011.1.024.152.039.227.058.454.12.68.187l.131.038c.313.094.624.192.934.298l.047.016c.31.107.618.22.924.338l.075.03c.35.138.699.286 1.042.44.017.009.034.015.05.023.35.156.692.323 1.03.499l.033.016c.343.177.679.364 1.007.556l.017.01c.335.198.66.403.978.617 2.82 1.904 4.304 4.041 4.32 5.862l-.162-18.417c-.016-1.819-1.5-3.956-4.32-5.86-.317-.214-.643-.42-.977-.617l-.018-.01c-.328-.194-.664-.379-1.006-.556-.012-.007-.024-.013-.036-.017-.337-.175-.68-.342-1.027-.5l-.05-.02c-.345-.157-.692-.303-1.043-.442l-.02-.008-.055-.02c-.308-.12-.619-.235-.932-.342l-.035-.013c-.314-.108-.63-.206-.944-.3-.025-.006-.048-.015-.072-.023l-.048-.013c-.229-.068-.458-.13-.688-.19l-.14-.034c-.187-.048-.374-.093-.56-.135l-.106-.026-.117-.024c-.116-.026-.233-.05-.35-.074l-.243-.049c-.118-.022-.235-.043-.354-.062-.057-.011-.115-.023-.171-.03-.015-.004-.03-.006-.045-.007-.315-.053-.63-.097-.943-.134l-.073-.01c-.019-.003-.037-.003-.055-.006-.273-.029-.544-.055-.813-.074l-.066-.006c-.03 0-.06 0-.089-.003-.5-.031-.987-.042-1.463-.03h-.086c-.024 0-.048.002-.073.004-.231.007-.46.019-.683.037h-.016c-.013.002-.026.005-.04.006-.233.02-.462.045-.687.078l-.073.007c-.018.002-.034.007-.051.009-.093.014-.184.03-.275.046-.066.013-.132.023-.195.036-.095.017-.188.04-.28.06-.049.01-.1.019-.148.032l-.021.004c-.199.049-.393.105-.581.163l-.128.043c-.19.063-.376.13-.553.203-.142.063-.273.13-.4.196-.037.021-.073.043-.11.063-.045.025-.092.049-.135.074l-.105.068-.135.088c-.069.047-.135.095-.199.145-.037.03-.077.058-.112.086l-.04.03c-.075.064-.147.127-.213.192-.009.008-.016.017-.026.024-.054.053-.107.108-.157.162-.016.016-.029.034-.043.05l-.072.083c-.048.057-.094.114-.137.173-.02.026-.041.053-.06.08l-.032.044c-.023.03-.04.061-.06.092-.038.056-.074.112-.108.17-.028.044-.052.087-.077.132-.033.057-.063.113-.093.168-.01.02-.022.038-.031.06l-.032.064c-.049.098-.095.198-.14.296l-.03.066c-.06.132-.116.264-.173.396l-.131.304-.052.116c-.055.12-.11.242-.171.36-.032.065-.067.128-.101.189l-.048.088c-.053.09-.108.182-.168.27-.038.056-.08.112-.119.168-.058.08-.12.161-.183.245l-.082.103c-.085.104-.174.207-.268.312-.008.006-.014.016-.022.026-.1.106-.205.212-.315.319l-.097.091c-.08.074-.163.148-.248.22l-.128.107c-.086.07-.175.139-.266.205-.04.032-.082.062-.125.094-.133.094-.27.187-.414.277l-.046.024-.02.013-.058.03c-.011.006-.02.01-.033.019l-.07.034-.047.025-.074.037-.068.033-.075.036c-.029.015-.056.03-.088.044-.026.011-.055.027-.084.038-.031.016-.062.029-.094.046-.042.02-.088.041-.134.06-.02.01-.04.022-.062.031-.068.031-.138.063-.211.093-.482.216-1.046.45-1.572.626l-25.585-17.263.162 18.418 25.585 17.262c.524-.178 1.09-.412 1.572-.626l.396-.18c.003-.002.005-.002.007-.005.059-.025.112-.051.166-.077.004-.004.01-.005.013-.007.041-.02.079-.036.117-.056l.048-.024.085-.042c.019-.008.038-.02.055-.027l.065-.034c.018-.008.037-.018.054-.028l.045-.022.046-.026.03-.016c.01-.006.021-.013.029-.016.003-.003.005-.005.007-.005.145-.088.283-.183.417-.278l.12-.09c.092-.068.183-.137.27-.21.02-.016.045-.032.065-.05.022-.017.04-.035.06-.052.086-.075.167-.147.247-.221l.102-.093c.108-.105.213-.211.312-.32.002 0 .002 0 .004-.004l.021-.024c.093-.104.181-.205.265-.308.029-.035.056-.072.084-.107.063-.08.123-.16.18-.24.015-.022.033-.042.048-.065.025-.033.05-.069.072-.102.06-.09.116-.181.168-.273.02-.032.036-.066.054-.098.031-.057.062-.111.09-.167l.005-.008c.06-.121.117-.242.173-.364.016-.039.033-.076.05-.112l.13-.304c.057-.135.116-.268.175-.403.009-.02.019-.037.027-.056.045-.104.095-.203.145-.305l.06-.117c.03-.059.061-.118.095-.174.024-.045.049-.087.074-.13.035-.057.073-.115.111-.171.03-.046.058-.09.09-.135l.061-.082c.044-.057.089-.115.136-.171l.073-.084c.063-.07.128-.14.199-.207.009-.01.016-.02.026-.028.08-.076.165-.15.255-.222.035-.03.073-.058.11-.086.064-.049.131-.098.201-.145.043-.03.088-.059.134-.088.076-.048.156-.096.24-.144l.11-.06c.126-.068.257-.134.4-.198.177-.073.362-.14.552-.203.042-.014.085-.029.129-.042.188-.06.38-.114.58-.162"/>
        <path fill="#5556A3" d="M457.539 188.73L457.701 207.145 378.522 240.462 378.36 222.048z"/>
        <path fill="#6270B3" d="M316.592 180.367l32.755-13.783c1.116.657 2.434 1.777 2.562 1.943 1.532 2.016-.443 4.767 2.125 6.5 3.163 2.133 10.942 1.666 17.379-1.04.18-.076.356-.152.53-.23 6.049-2.697 8.474-6.464 5.399-8.538-1.965-1.325-5.352-1.241-8.112-1.75-1.426-.264-2.894-.654-4.046-1.18-.25-.115-1.485-.828-2.209-1.44l32.795-13.799 61.769 41.68-79.18 33.317-25.554-17.242c.101-.05.208-.098.318-.147 1.263-.563 3.084-1.173 3.373-1.238 3.81-.836 8.966.18 12.258-1.205 4.034-1.798 3.211-5.872-1.754-9.223-5.02-3.388-12.376-4.753-16.43-3.047-2.515 1.12-2.417 2.884-3.39 4.33-.514.763-1.266 1.548-2.268 2.166-.12.071-.58.304-1.163.563-.481.216-1.046.45-1.572.627l-25.585-17.264z"/>
        <path fill="#F3A57A" d="M205.561 267.14l-.142.37c-.088.004-.178.006-.265.009-14.723.452-37.106-7.332-50.16-19.79v-.003c-.087-1.443-.179-2.815-.274-4.086 4.662-1.678 9.054-4.712 10.78-5.98 7.107 7.584 17.61 17.926 25.539 20.421 0 0 7.891 3.626 14.612 4.06h.019c2.603 3.242-.109 5-.109 5"/>
        <path fill="#00376F" d="M137.047 289.103c-.08 1.93-.177 4.131-.29 6.528-.009.124-.014.249-.02.375-.245 4.948-.568 10.7-.988 16.611-.816 11.468-1.993 23.548-3.642 31.58v.005c-.042.21-.087.416-.13.619-6.95 5.103-15.45-.759-15.45-.759-.288-1.638-.56-3.28-.819-4.918-3.811-24.122-4.509-47.517-4.636-55.213.022.008.043.019.064.03.04.015.077.03.116.05 3.069 1.302 9.412 2.978 16.413 4.07 3.073.48 6.276.848 9.382 1.022"/>
        <path fill="#007FAB" d="M152.36 287.401c-1.94 3.827-5.42 7.279-11.637 8.156 0 0-1.057.183-2.775.35-.373.034-.78.07-1.21.1-7.52.56-23.25.221-25.486-11.996 3.069 1.302 9.411 2.978 16.413 4.07 3.073.48 6.276.848 9.382 1.022 5.978.339 11.61-.037 15.313-1.702"/>
        <path fill="#ACB4D9" d="M89.852 422.826c0 15.39 28.04 27.866 62.63 27.866 34.586 0 62.626-12.476 62.626-27.866 0-15.39-28.04-27.866-62.627-27.866-34.59 0-62.63 12.476-62.63 27.866"/>
        <path fill="#19161B" d="M188.912 421.818l-2.068-.12c-.706-.109-.7 1-.795 1.037-2.164.853-4.086 1.52-4.898 1.554 0 0-3.827-.498-4.237-1.657l.54-7.1c4.265-.359 8.715-1.183 8.715-1.183l9.372-1.316c4.51-.47 5.33 1.16 5.33 1.16s2.762 4.124-11.96 7.625"/>
        <path fill="#0A0107" d="M183.223 421.398c.684-.317 1.699-.662 2.425-.789 4.622-.81 9.145-1.268 12.994-4.24.94-.726 1.603-1.628 1.67-2.705.427.278.559.53.559.53s2.762 4.123-11.96 7.624l-2.068-.12c-.705-.109-.7 1-.795 1.037-2.163.853-4.085 1.52-4.898 1.554 0 0-3.825-.498-4.236-1.657l.132-1.73c1.523.876 4.212 1.405 6.177.496"/>
        <path fill="#19161B" d="M126.3 420.06l-2.068-.119c-.705-.11-.7.998-.797 1.037-2.162.85-4.083 1.519-4.896 1.553 0 0-3.826-.498-4.235-1.658l.538-7.098c4.265-.36 8.715-1.183 8.715-1.183l9.373-1.318c4.51-.47 5.33 1.162 5.33 1.162s2.761 4.124-11.96 7.624"/>
        <path fill="#0A0107" d="M120.61 419.64c.688-.317 1.7-.662 2.424-.788 4.625-.81 9.146-1.269 12.996-4.242.94-.726 1.603-1.627 1.67-2.704.427.279.559.53.559.53s2.762 4.124-11.96 7.624l-2.067-.119c-.706-.11-.7.998-.797 1.037-2.162.85-4.084 1.519-4.896 1.553 0 0-3.826-.498-4.235-1.658l.13-1.729c1.523.876 4.212 1.404 6.176.496"/>
        <path fill="#00376F" d="M125.507 414.293c1.535-1.832 6.573-69.146 6.573-69.146.835-10.348-16.37-6.004-16.37-6.004-2.507 10.302-2.102 12.24-2.888 25.024-.313 5.049.492 46.867.305 50.083 0 0 7.987 5.29 12.38.043"/>
        <path fill="#264B8B" d="M168.941 341.48c-.037.082-.071.164-.11.244l-.22-.883c-4.11-8.674-15.913.46-15.913.46.005.605.01 1.223.018 1.855-6.501-10.535-12.313-21.328-16.967-30.539-1.942-3.84-3.681-7.403-5.188-10.558-9.356-1.586-20.052-9.626-19.425-18.099.04.016.076.032.116.05 3.068 1.303 9.411 2.979 16.412 4.07 3.074.482 6.277.849 9.383 1.023 5.978.339 11.61-.037 15.313-1.702.41-.185.798-.383 1.157-.602 1.24-.743 2.178-1.684 2.722-2.852 4.263 16.106 11.317 44.026 12.702 57.533"/>
        <path fill="#264B8B" d="M186.408 413.544c-3.185 7.855-11.956 5.075-11.956 5.075-1.031-3.05-15.874-46.489-17.478-51.286-3.676-10.976-4.165-18.236-4.257-24.177.938 1.522 1.892 3.04 2.856 4.543 0 0 8.529 4.363 13.257-5.976 2.014 8.12 17.26 69.61 17.578 71.821"/>
        <path fill="#264B8B" d="M168.83 341.723c-4.728 10.34-13.257 5.976-13.257 5.976-.964-1.504-1.918-3.02-2.856-4.543-.008-.632-.014-1.25-.019-1.856 0 0 11.803-9.133 15.913-.46l.22.883"/>
        <path fill="#264B8B" d="M168.83 341.723c-4.728 10.34-13.257 5.976-13.257 5.976-.964-1.504-1.918-3.02-2.856-4.543-.008-.632-.014-1.25-.019-1.856 0 0 11.803-9.133 15.913-.46l.22.883"/>
        <path fill="#E69871" d="M110.541 243.334c-.148 3.023-.309 6.535-.465 10.196-9.432-2.968-9.432-8.468-9.432-8.468-.278-2.95-.389-6.908-.4-11.25 1.557.871 5.093 2.597 9.7 3.337.23 2.128.433 4.134.54 5.553.015.217.033.428.057.632"/>
        <path fill="#F3AA81" d="M137.565 193.193c-1.665.015-9.197-.019-14.425-1.864.092-.282.214-.692.32-1.194.177-.843.317-1.956.232-3.193-.098-1.475-.515-3.126-1.567-4.715v-.002c-.008-.011-.013-.022-.021-.032l8.642-6.068.508-.354 1.025-.722.547-.383 2.41-1.692.273-.192 1.104-.775s.003.669.024 1.84c.045 2.502.161 7.312.476 12.818.116 2.064.262 4.228.441 6.403l.01.125"/>
        <path fill="#F3AA81" d="M137.855 193.19c-.052 0-.15.003-.29.003-1.665.015-9.198-.019-14.425-1.864-.856-.304-1.652-.655-2.35-1.062.983-.06 1.86-.106 2.67-.132 4.173-.132 6.472.27 11.409 1.94.862.293 1.765.629 2.685.993.1.04.201.08.301.122"/>
        <path fill="#264B8B" d="M153.517 286.799c-.36.914-.79 1.84-1.308 2.775-2.992 5.41-8.867 7.347-14.261 6.332-.402-.074-.798-.166-1.192-.275-3.845-1.052-7.305-3.634-9.092-7.55 3.074.48 6.277.848 9.383 1.022 5.978.339 11.61-.037 15.313-1.702.41-.185.798-.383 1.157-.602"/>
        <path fill="#FCD976" d="M150.637 199.247c-.122-.066-.849-.454-1.97-1.03-2.439-1.253-6.752-3.396-10.811-5.027l.042-.003c4.646 1.573 9.01 3.901 11.227 5.167.87.494 1.411.83 1.512.893"/>
        <path fill="#F3A57A" d="M141.549 184.85l.626-2.415 1.484-8.906c.187-1.118.043-2.574-.278-3.666-.35-1.19-.63-2.444-.456-3.759.852-6.378-2.721-9.548-2.721-9.548-4.158-5.463-12.806-4.7-12.81-4.698-4.485.68-8.403 2.533-10.634 6.625-2.025 3.71-3.126 8.235-1.925 12.377 1.317 4.54 3.861 8.089 7.229 11.31 2.155 2.06 4.357 2.312 7.177 3.344 1.963.718 5.722 1.136 7.808 1.15 1.094.004 4.14-.426 4.5-1.813"/>
        <path fill="#441600" d="M139.84 160.255l-1.378 5.53c-1.573.688-2.204 1.296-1.988 3.365l.499 4.566-1.243.476c.104-1.828-2.433-1.854-2.433-1.854-1.854-.106-2.17 1.475-2.064 2.996.275 3.951-1.163 10.226-4.476 11.33-1.308.437-3.774.891-4.188-.881-.505-2.167-4.61-6.47-4.61-6.47-4.93-4.775-6.166-12.924-3.835-19.15.705-1.883 2.094-3.846 3.54-5.23 3.074-2.942 6.944-4.388 11.025-4.92 0 0 5.62-.685 8.78 1.533 1.957 1.376 3.243 2.635 4.08 3.732 0 0 1.197 2.539-1.71 4.977"/>
        <path fill="#F3A57A" d="M135.31 178.071c-.359.316-.833.514-1.442.543-1.642.08-3.101-1.368-3.26-3.234-.157-1.864 1.045-3.441 2.685-3.52.778-.037 1.517.269 2.093.798.84.775.963 2.292.842 3.353-.095.849-.378 1.587-.918 2.06"/>
        <path fill="#E9916D" d="M134.068 173.555c-.161-.974-2.083.088-1.748.622.194.307.555.518.843.722.395.283.594.55.678 1.031.011.059.032.228-.023.271-.244.195-1.146-.71-1.344-.898-.387-.374-.481-1.051-.34-1.554.155-.534.484-.803 1.044-.804.446-.002.903 0 .91.555 0 .012-.014.105-.02.055"/>
        <path fill="#E9916D" d="M133.498 174.614c.193-.222.401-.063.621.077.205.13.327.327.392.556.146.502.12 1.187-.142 1.65-.214.375-.598.62-1.03.635-.597.02-.809-.495-.863-1-.015-.133-.048-.455.08-.545.139-.098.253.116.354.206.142.117.34.153.519.158.342.008.664-.187.864-.453.032-.048.063-.103.08-.16.02.331.007.405-.04.226-.03-.083-.074-.157-.127-.225-.153-.22-.396-.363-.565-.571-.079-.096-.241-.441-.143-.554"/>
        <path fill="#F3AA81" d="M215.921 263.78c-.76-1.125-.095-1.71-1.635-1.76-1.752-.059-3.324-.924-4.513-.89-2.072.057-9.899 1.882-4.647 6.363 1.223 1.045 4.721 5.722 7.144 4.336 3.578-2.05 2.361-1.294 4.18-5.745l-.529-2.304z"/>
        <path fill="#FCD976" d="M165.5 237.66c-1.726 1.268-6.118 4.302-10.78 5.98.095 1.271.187 2.643.275 4.086v.003c.872 14.35 1.411 35.819 1.411 35.819-.05.135-.106.267-.167.4-.544 1.167-1.482 2.108-2.722 2.85-.36.22-.748.418-1.157.603-3.703 1.665-9.335 2.04-15.313 1.702-3.106-.174-6.309-.541-9.383-1.023-7-1.091-13.344-2.767-16.412-4.07l-.116-.05c-.021-.01-.042-.021-.064-.029-1.1-.483-1.73-.912-1.76-1.234-.23-2.503.238-16.695.764-29.167.156-3.66.317-7.173.465-10.196-.024-.204-.042-.416-.058-.632-.106-1.42-.31-3.425-.54-5.553-4.606-.74-8.142-2.466-9.699-3.338-.568-.314-.872-.518-.872-.518l1.208-31.138c.394-8.518 7.627-10.323 7.855-10.377.002 0 .002-.002.005-.002 4.245-1.213 12.35-1.51 12.35-1.51.698.408 1.494.76 2.35 1.063 5.227 1.845 12.76 1.88 14.425 1.864.14 0 .238-.003.29-.003 4.06 1.63 8.373 3.774 10.813 5.027 1.12.576 1.847.964 1.969 1.03l.018.011c2.907 1.068 4.63 2.857 5.637 4.763 1.044.808 1.869 1.807 2.46 2.915.02.029.033.055.046.084l.158.317c.016.037.035.072.05.109 1.859 3.885 2.223 7.432 2.223 7.432l5.043 22.197s-.275.22-.772.584"/>
        <path fill="#FCD976" d="M158.753 206.936c-.592-1.108-1.417-2.107-2.46-2.915-1.008-1.906-2.73-3.695-5.638-4.763l-.018-.01c-.122-.067-.849-.455-1.97-1.031h.006c.153.042.304.087.452.137 4.924 1.544 7.878 5.138 9.628 8.582"/>
        <path fill="#441600" d="M142.218 160.128c-1.261 1.017-2.868.35-4.31.014-1.967 2.309.387 4.613-2.592 5.732-1.578.591-3.912.761-5.66 1.043-1.396.225-2.806-.098-3.804.945-1.081 1.128-.057 4.643-1.334 5.316-2.232 1.179-3.983-4.932-6.83-4.447-2.426.412-2.856 4.264-2.006 6.158-.284-.248-.486-.35-.636-.431-1.157-3.016-2.635-3.07-3.911-5.215-1.978-3.326-1.644-2.532-2.038-5.725-.005-.03.39-1.399.394-1.417.929-3.398 2.518-3.977 3.28-5.42.805-1.522 2.048-2.59 3.08-3.93.951-1.236 1.43-2.9 2.522-4.004 1.658-1.677 4.376-2.52 6.657-2.819 2.458-.323 4.795 1.203 7.23.775.999-.176 1.933-1.082 2.935-1.026 1.222.07 2.068 1.282 3.124 1.757 1.964.883 5.059.526 6.736 1.908 1.854 1.528 1.455 3.736.314 5.608-.641 1.05-1.94 1.653-2.516 2.741-.16.301-.595 2.405-.635 2.437"/>
        <path fill="#F3AA81" d="M487.27 151.203s-10.177 17.802-18.222 37.874c0 0 .149 3.819 2.96 2.639 2.81-1.177 25.507-33.323 25.53-36.25.06-7.52-10.268-4.263-10.268-4.263"/>
        <path fill="#F3AA81" d="M463.619 196.72l2.451-.834s-4.151 2.555-6.059 1.542c0 0-.443-.118-.028-.82 0 0 3.947-1.37 5.545-2.418 0 0-3.652 2.174-6.549 2.763 0 0-1.325-.382-.342-1.405-1.002-.07-.42-.897-.42-.897s.665-.7 2.366-1.868c0 0 2.604-1.817 5.413-4.307 0 0-3.132-.899-2.581-2.573l4.67.873 4.356 1.21 1.245 2.31-2.966 3.797s-3.216 2.614-5.273 3.33c0 0-6.033 1.637-1.828-.703"/>
        <g>
            <path fill="#004B8C" d="M77.969 20.234c.007-.81.429-1.55 1.31-2.143.14-.096.29-.18.444-.261.047-.026.098-.049.148-.072.11-.054.223-.105.339-.154.029-.01.056-.026.086-.037.024-.01.053-.017.079-.027.185-.071.374-.137.572-.195l.01-.003c.001 0 .002 0 .002-.002.2-.057.407-.109.617-.155.024-.007.048-.016.073-.02.03-.006.063-.011.094-.018.245-.053.494-.101.75-.145l.024-.003.08-.013c.255-.04.512-.077.772-.112.034-.004.068-.01.103-.013.28-.037.562-.07.845-.102l.049-.006.191-.023c.191-.02.381-.042.572-.064.266-.03.53-.063.792-.097l.158-.019c.263-.035.52-.072.775-.114.136-.021.271-.044.404-.068.274-.051.548-.107.823-.167l.154-.034c.197-.043.393-.09.587-.14l.019-.005c.197-.05.393-.104.587-.161l.18-.053c.134-.04.268-.082.399-.126l.195-.066c.132-.045.26-.093.387-.141.054-.02.109-.039.16-.06.17-.067.333-.136.49-.208.249-.112 1.464-.815 2.174-1.416l-.158 18.117c-.71.602-1.926 1.304-2.174 1.417-.159.073-.324.142-.493.21-.013.004-.024.01-.037.015-.036.013-.075.026-.11.04-.132.05-.265.099-.401.145-.063.023-.126.044-.19.065-.13.043-.264.085-.399.125l-.122.039c-.02.007-.042.011-.063.016-.192.056-.385.11-.582.16l-.026.006c-.191.05-.386.094-.58.14l-.065.014c-.032.008-.063.013-.095.02-.274.06-.547.116-.819.165-.111.021-.224.04-.337.06-.023.005-.049.006-.072.011-.252.04-.507.077-.765.111l-.173.023c-.254.032-.509.063-.766.093l-.024.002-.543.063-.272.03c-.28.032-.559.064-.835.102-.033.003-.067.007-.1.013-.26.033-.52.07-.774.112-.034.005-.07.012-.104.016-.257.043-.507.092-.754.145-.053.012-.107.022-.16.035-.212.049-.42.1-.62.16h-.006c-.199.06-.392.125-.579.198-.055.02-.11.042-.164.064-.116.049-.229.099-.34.153l-.147.071c-.154.082-.303.167-.444.26-.882.596-1.303 1.333-1.31 2.145l.159-18.118zM7.206 37.309l-.022-.104-.02-.093c-.001-.011-.001-.022-.004-.032-.007-.048-.013-.096-.017-.143-.005-.037-.01-.073-.012-.108-.003-.051-.006-.101-.007-.153 0-.029-.003-.056-.003-.087v-.035l.16-18.12c-.002.043.001.083.002.125.002.05.003.101.007.151.002.036.008.073.012.108.005.048.01.095.018.143l.024.126c.006.035.013.069.022.104.01.044.023.086.035.13.01.032.018.065.03.098.005.017.012.033.018.05.043.125.093.247.154.366.002.003.003.005.003.008.058.113.126.224.2.332.012.017.023.036.036.053.074.103.157.206.245.304.026.027.05.055.077.082.028.029.056.059.086.087l.103.097c.031.029.063.056.096.085.03.026.062.05.093.076.056.045.113.088.174.132l.093.066c.068.046.138.091.21.135.026.017.052.034.08.05.063.039.13.075.199.111l.09.05c.1.05.203.1.31.148.207.087.42.164.64.235.073.022.15.04.224.062.15.044.299.088.453.124.04.01.082.018.123.026.174.04.35.076.528.107l.216.035c.166.027.336.051.505.072.057.009.112.015.168.021.221.026.445.049.672.066.14.011.285.02.428.027.12.009.24.017.362.023.146.009.294.011.442.018.119.003.236.01.356.013.284.008.567.012.854.016h.023c.335.005.672.008 1.008.01l.643.01c.106 0 .212.002.318.004.182.003.364.006.545.011.046.002.094.002.139.003.08.002.158.007.237.009.138.004.276.01.413.015l.385.022.397.025.134.01v.003-.003c.148.011.295.026.44.042l.09.008c.19.02.38.043.565.07l.066.014c.277.04.55.088.816.146l.024.006c.007.002.018.006.027.007l.036.01.058.016c.015.005.03.01.047.014l.076.024c.02.005.038.011.058.018l.095.03.06.02.114.037.069.022.125.043c.025.007.05.015.074.025.045.015.092.03.139.047.026.01.052.017.079.027l.141.05.093.032.133.049c.037.012.074.025.111.04l.132.048.117.043.135.05.12.045.135.053c.04.015.081.03.121.047.045.016.09.036.136.051l.12.049c.045.017.09.037.135.055l.117.048.142.06.103.043c.08.034.159.068.235.103.114.05.223.1.325.15l-.16 18.117-.323-.15-.237-.103c-.025-.011-.052-.02-.078-.032l-.167-.071-.097-.038-.155-.063-.109-.044-.146-.058-.114-.043c-.048-.02-.095-.037-.143-.055l-.117-.045c-.046-.016-.091-.034-.136-.052l-.115-.041-.137-.05-.108-.039-.132-.046c-.04-.015-.078-.03-.117-.042l-.11-.039c-.04-.015-.077-.028-.115-.04l-.104-.035-.102-.036c-.033-.01-.067-.023-.1-.032l-.09-.03-.091-.03-.08-.026c-.027-.01-.054-.017-.078-.025l-.07-.021c-.022-.008-.044-.015-.064-.02l-.055-.016c-.019-.006-.037-.01-.052-.016l-.039-.01-.05-.012c-.266-.06-.54-.106-.819-.148-.206-.03-.414-.06-.625-.082l-.108-.01c-.184-.02-.372-.036-.561-.05-.13-.01-.262-.018-.394-.026-.128-.008-.257-.014-.388-.02-.134-.007-.27-.012-.405-.016l-.387-.013-.53-.01-.332-.007c-.212-.001-.423-.005-.636-.006-.277-.003-.555-.005-.831-.01-.07 0-.14 0-.21-.002-.281-.003-.562-.009-.841-.017h-.041v-.002.002c-.117-.003-.232-.01-.348-.013l-.415-.016c-.126-.007-.25-.016-.375-.024-.138-.008-.276-.016-.413-.026-.014-.002-.031-.002-.046-.003-.213-.018-.423-.039-.63-.063l-.159-.02c-.104-.014-.21-.025-.313-.04v-.004.004c-.068-.01-.133-.022-.2-.033-.071-.011-.143-.023-.213-.036-.178-.03-.355-.067-.529-.106-.041-.01-.084-.016-.125-.026l-.035-.008c-.145-.035-.283-.077-.422-.117-.073-.02-.147-.039-.219-.061-.22-.071-.432-.148-.639-.235-.107-.049-.21-.099-.31-.149l-.103-.056c-.063-.034-.125-.068-.185-.103-.007-.005-.016-.008-.023-.012l-.066-.044c-.07-.042-.136-.086-.2-.13-.035-.021-.066-.046-.098-.068-.059-.044-.116-.085-.17-.13l-.056-.043v-.003.003c-.014-.01-.027-.023-.04-.035-.032-.027-.063-.054-.093-.082-.036-.034-.072-.066-.106-.1-.03-.027-.058-.056-.085-.085l-.055-.055c-.007-.01-.013-.019-.021-.027-.09-.1-.172-.202-.247-.306l-.015-.02c-.008-.01-.012-.021-.02-.031-.074-.11-.142-.22-.2-.332l-.001-.003c-.002-.002-.003-.005-.003-.008-.06-.116-.11-.237-.152-.36-.003-.01-.01-.02-.013-.031v-.005.005l-.007-.025c-.01-.03-.02-.062-.029-.096-.012-.042-.025-.085-.036-.13" transform="translate(283.054 237.89)"/>
            <path fill="#005BA2" d="M0.378 41.22L0.218 59.339 78.121 92.119 78.279 74z" transform="translate(283.054 237.89)"/>
            <path fill="#004B8C" d="M78.279 74L78.121 92.119 138.892 51.112 139.05 32.993z" transform="translate(283.054 237.89)"/>
            <path fill="#076BAD" d="M139.05 32.993l-32.229-13.56c-1.096.645-2.39 1.75-2.517 1.912-1.507 1.983.436 4.69-2.09 6.395-3.112 2.098-10.767 1.64-17.099-1.024-.178-.075-.354-.151-.526-.229-5.949-2.652-8.331-6.357-5.31-8.397 1.934-1.305 5.268-1.221 7.98-1.721 1.406-.26 2.85-.645 3.98-1.162.249-.112 1.464-.815 2.174-1.416L61.148.213 35.978 17.2c-.52-.176-1.08-.407-1.557-.62-.569-.253-1.017-.48-1.133-.552-.988-.608-1.729-1.381-2.233-2.13-.958-1.424-.863-3.16-3.215-4.209-4.109-1.73-11.344-.387-16.286 2.946C6.67 15.931 5.861 19.94 9.7 21.651c3.371 1.421 8.441.418 12.188 1.244.286.063 2.066.658 3.308 1.212.114.05.223.1.325.15L.378 41.22 78.279 74l60.771-41.007z" transform="translate(283.054 237.89)"/>
        </g>
        <path fill="#ACB4D9" d="M467.11 459.887c0 10.936-19.921 19.797-44.496 19.797-24.574 0-44.495-8.861-44.495-19.797 0-10.934 19.92-19.797 44.495-19.797 24.575 0 44.496 8.863 44.496 19.797"/>
        <path fill="#E69871" d="M400.061 459.284s-4.72-.864-3.391 2.988c0 0 11.019 4.732 18.715 3.665 0 0 5.41-.181 4.561-6.05l.09-4.77-7.256 1.375.412 4.533-13.13-1.741z"/>
        <path fill="#53122F" d="M419.946 459.887c.005.755-.23 1.476-.724 2.046-1.899 2.189-5.632 2.255-8.26 2.087-4.16-.263-8.492-.894-12.569-1.758-.9-.19-1.149-.484-1.16-.748.471-1.05 1.316-1.957 2.828-2.23l-4.017-.514c-3.709-.132-5.391.718-6.256 1.278-1.027 2.934 3.97 4.891 3.97 4.891s5.304 2.01 11.7 3.266c0 0 14.104 3.327 15.808-1.012l-1.32-7.306z"/>
        <path fill="#E69871" d="M428.08 452.728s-4.72-.863-3.39 2.987c0 0 11.018 4.732 18.714 3.667 0 0 5.41-.183 4.56-6.05l.091-4.77-7.256 1.373.413 4.533-13.131-1.74z"/>
        <path fill="#53122F" d="M447.965 453.331c.005.755-.23 1.476-.723 2.044-1.9 2.191-5.633 2.257-8.26 2.09-4.161-.266-8.493-.895-12.57-1.758-.9-.19-1.149-.484-1.16-.749.471-1.049 1.316-1.956 2.829-2.23l-4.018-.514c-3.708-.132-5.39.718-6.256 1.278-1.026 2.933 3.97 4.89 3.97 4.89s5.305 2.009 11.7 3.267c0 0 14.104 3.326 15.809-1.012l-1.321-7.306z"/>
        <path fill="#003F8A" d="M426.774 325.36c0 7.436 6.03 13.469 13.469 13.469 7.437 0 13.468-6.033 13.468-13.469 0-7.437-6.03-13.469-13.468-13.469-7.44 0-13.47 6.032-13.47 13.47"/>
        <path fill="#003F8A" d="M448.719 390.197s-.187 3.386-6.27 3.47c0 0-5.758 1.963-8.244-5.534-9.796-29.526-7.207-60.338-7.207-60.338s13.83-7.703 26.713-2.434c0 0-2.083 38.756-4.992 64.836"/>
        <path fill="#003F8A" d="M434.205 388.133s4.745 63.814 5.188 66.095c4.63 2.94 8.72-.08 8.72-.08-.024-3.131 3.387-29.225 3.74-34.126.606-8.423 1.619-19.064-3.704-31.168l-13.944-.721z"/>
        <path fill="#004B9F" d="M409.683 392.144s-1.299 3.132-7.065 1.194c0 0-6.083-.053-5.946-7.95.539-31.104 14.17-63.338 14.17-63.338s15.35-1.467 25.76 7.772c0 0-15.535 38.678-26.92 62.322"/>
        <path fill="#004B9F" d="M411.186 320.899c-2.464 7.017 1.228 14.704 8.246 17.169 7.018 2.464 14.705-1.227 17.17-8.246 2.464-7.018-1.228-14.705-8.247-17.169-7.018-2.464-14.705 1.228-17.17 8.246"/>
        <path fill="#004B9F" d="M453.71 323.4c-1.627-14.977-9.141-21.929-9.141-21.929l-26.035-3.288s-7.177 12.488-7.927 25.217c3.11 8.489 14.204 10.962 14.204 10.962l8.423 2.5s19.088-2.9 20.477-13.462M397.875 391.584s12.913 67.036 13.69 69.226c-.34-.165 6.103 2.961 8.956-1.074-.487-3.092-.759-37.142-1.135-42.042-.647-8.42-.558-16.277-7.613-27.46 0 0-17.631-12.621-13.898 1.35"/>
        <path fill="#E69871" d="M455.637 274.207s-4.743 5.585-14.175 19.068l1.63 2.764s16.156-8.138 21.31-17.274l-8.765-4.558z"/>
        <path fill="#E69871" d="M442.283 254.224s12.162 26.539 19.466 25.53c0 0 2.52.157 3.026-1.742 0 0 5.158-4.575-16.29-37.574 0 0-2.096-2.804-6.39-2.079 0 0-6.514 4.304.188 15.865"/>
        <path d="M37 490.551L556.374 490.551 556.374 0 37 0z"/>
        <path fill="#F4BE8F" d="M422.615 247.424L435.762 247.424 435.762 233.451 422.615 233.451z"/>
        <path fill="#F3AA81" d="M414.482 233.769l-.494-2.234-.984-8.184c-.124-1.028.102-2.345.487-3.323.418-1.066.77-2.194.67-3.4-.492-5.852 3.276-8.553 3.276-8.553 4.487-4.761 13.132-3.621 13.134-3.621 4.468.85 8.297 2.739 10.309 6.58 1.823 3.48 2.671 7.658 1.231 11.367-1.579 4.068-4.336 7.166-7.901 9.925-2.283 1.766-4.51 1.883-7.402 2.678-2.014.553-5.812.741-7.908.646-1.1-.051-4.135-.599-4.418-1.881"/>
        <path fill="#380A06" d="M420.469 226.196c.649-.921 3.011-1.49 3.012-1.49 2.854 0 2.481 3.81 2.75 5.46.088.538.192 1.09.313 1.64 1.36 4.842 5.43 4.8 8.91 5.386.128-.076.264-.153.406-.23.63-2.148 2.633-4.378 2.633-4.378 5.225-4.517 6.93-12.634 4.94-19.022-.602-1.931-1.886-3.984-3.26-5.453-2.921-3.129-6.727-4.801-10.797-5.567-4.045-.762-18.515 1.2-14.566 9.988 0 0 5.954 6.87 5.659 13.666"/>
        <path fill="#F6BE8F" d="M420.469 226.196c.514-1.306 1.79-2.312 3.221-1.886 1.051.316 1.679 1.242 1.575 2.323-.022.235-.073.467-.096.702-.413 2.506-3.057 3.462-3.057 3.462l-1.643-4.601z"/>
        <path fill="#E3A882" d="M423.424 225.495c-.145-.104-.449-.16-.636-.172-.958-.061-1.73 1.417-.772 1.68.361.353-.013.759-.013.759-.33.359-.773.874-.674 1.379.061.3.394.46.695.534.24.06.288-.128.097-.219-.145-.07-.27-.18-.365-.3-.009-.017-.02-.032-.03-.05-.009-.01-.015-.025-.022-.039-.03-.071-.03-.145-.01-.219.216.153.577.188.744-.008.181-.219.043-.562.105-.811.046-.174.127-.34.222-.496.44-.733-.353-.856-.353-.856-.12.001-.213.01-.29.02-.402-.207.046-.81.29-.907.285-.111.633-.072.837.146.202.222.285.565.266.847-.022.347-.11.694-.26 1.014-.089.18-.198.393-.286.575-.1.204.14.296.24.088.21-.433.6-1.068.684-1.669.067-.497-.023-.975-.47-1.296"/>
        <path fill="#E3A882" d="M420.469 226.196s.115-.165.302-.46c.086-.154.25-.286.397-.46.14-.157.394-.337.606-.471.246-.125.516-.258.82-.296.3-.039.621-.039.935.064.105.026.349.129.475.201.127.08.254.17.378.29.235.23.418.521.5.851.08.334.08.65.015 1.058l-.035.288-.005.037v.005c.002-.018-.007.042.006-.035l-.001.007-.004.018-.013.071-.03.142c-.03.198-.086.349-.135.507-.116.314-.265.622-.446.886-.174.27-.38.503-.575.714-.402.41-.793.713-1.082.898-.287.19-.465.286-.465.286s.197-.04.523-.172c.32-.14.792-.346 1.277-.731.238-.194.496-.416.717-.701.231-.278.437-.6.593-.977.076-.194.156-.396.193-.575l.036-.139.017-.07.006-.018.009-.057.006-.037.043-.288c.068-.358.096-.848-.013-1.287-.119-.443-.377-.842-.704-1.148-.086-.072-.167-.148-.26-.21l-.302-.17c-.214-.098-.326-.141-.578-.204-.405-.111-.823-.07-1.185.016-.373.085-.671.281-.93.465-.262.22-.432.396-.58.626-.128.22-.268.395-.324.559-.124.325-.187.517-.187.517"/>
        <path fill="#FEFEFE" d="M422.113 230.184c0 .438-.357.795-.798.795-.439 0-.796-.357-.796-.795 0-.44.357-.797.796-.797.44 0 .798.357.798.797"/>
        <path fill="#EEE" d="M421.507 230.609c-.349 0-.63-.282-.63-.631 0-.28.185-.509.438-.59-.439 0-.796.356-.796.796 0 .438.357.795.796.795.44 0 .797-.357.797-.795 0-.02-.005-.039-.005-.057-.069.275-.305.482-.6.482"/>
        <path fill="#53122F" d="M456.873 307.717c-.05-.075-14.513-20.825-14.513-20.825-.676-3.062.849-9.15.849-9.15l4.639-31.913c-.55-3.657-.803-8.3-5.753-7.47-3.492.586-4.18 1.073-6.333 1.765.63 2.964-4.485 4.868-4.485 4.868-7.036 3.039-8.662 1.037-8.662 1.037-1.874 1.013-8.206 4.176-9.85 5.528-1.707 1.406-2.74 3.593-2.203 7.275l5.065 30.247-.891 7.514-9.25 23.454c2.86-1.025 5.986-1.44 9.012-1.076 2.877.344 5.356 2.04 8.212 2.358 4.317.474 7.521-1.084 10.779-3.149 3.96-.853 8.199-2.228 12.476-4.384l.272-.002c3.229.018 6.885-.038 9.268-2.566.502-.533 1.98-2.635 1.368-3.511"/>
        <path fill="#F3AA81" d="M421.316 269.101l-4.22 31.654-.072-.006c-.206 1.735-1.671 2.75-1.671 2.75l-.01.011c-.234.241-4.414 4.436-14.514 7.14l-21.218 6.105c-.71.762-1.93 1.668-4.997 3.31-7.828 2.678-11.352.596-11.352.596 0-.928 1.287-1.111 1.287-1.111 1.236.206 6.254-2.706 6.254-2.706 1.575-1.473 2.388-2.815 2.932-3.825-.043-.006-.088-.014-.134-.023l-3.143-2.395s-.976-.522-.631-1.456c0 0 .376-.532 1.38-.003l4.72 1.905c1.059-.104 2.596-.092 3.78.293l27.087-14.826.077-33.281c.894-10.068 5.895-11.676 5.895-11.676 10.106-1.185 8.55 17.544 8.55 17.544z"/>
        <path fill="#380A06" d="M417.676 223.945c.816 6.094-.104 14.16 2.932 20.82 1.352 2.964 2.843 4.434 2.033 7.874-.663 2.815-1.995 5.47-2.717 8.386-1.595 6.433.572 12.718 8.07 10.39 3.595-1.118 3.998-1.1 7.271.17 2.75 1.064 5.335 1.361 8.068.032 4.238-2.065 2.962-5.184 5.337-8.31 1.81-2.382 4.368-2.323 5.732-5.523 1.645-3.862-.315-5.924-2.32-9.201-2.088-3.414-2.422-5.663-1.735-9.78.577-3.459-.278-5.207-1.422-8.387-1.174-3.258-.662-6.097-1.218-9.365-1.1-6.46-4.631-15.23-11.4-17.125-3.317-.93-7.604-1.655-10.796-.483-4.347 1.593-9.188 3.293-9 8.638.195 5.5.439 6.437 1.165 11.864"/>
        <path fill="#84C584" d="M447.366 23.033c0 6-4.864 10.865-10.867 10.865-6 0-10.866-4.865-10.866-10.865 0-6.003 4.866-10.867 10.866-10.867 6.003 0 10.867 4.864 10.867 10.867M93 17c0 3.313-2.686 6-6 6-3.313 0-6-2.687-6-6 0-3.314 2.687-6 6-6 3.314 0 6 2.686 6 6M108.495 479.685c0 6-4.864 10.866-10.866 10.866-6 0-10.866-4.866-10.866-10.866 0-6.002 4.866-10.867 10.866-10.867 6.002 0 10.866 4.865 10.866 10.867"/>
        <path fill="#EE8EB6" d="M97.63 105.726c0 4.297-3.484 7.778-7.778 7.778-4.296 0-7.778-3.481-7.778-7.778 0-4.294 3.482-7.775 7.778-7.775 4.294 0 7.777 3.481 7.777 7.775M545.713 164.109c0 4.294-3.483 7.775-7.778 7.775-4.296 0-7.777-3.481-7.777-7.775 0-4.297 3.481-7.778 7.777-7.778 4.295 0 7.778 3.481 7.778 7.778"/>
        <path fill="#A6C9EA" d="M330.594 89.096c0 4.294-3.483 7.777-7.778 7.777s-7.777-3.483-7.777-7.777c0-4.296 3.482-7.778 7.777-7.778s7.778 3.482 7.778 7.778"/>
        <path fill="#B3DFF6" d="M64.883 269.166c0 4.295-3.482 7.776-7.777 7.776s-7.777-3.48-7.777-7.776c0-4.295 3.482-7.777 7.777-7.777s7.777 3.482 7.777 7.777M551.942 320.314c0 4.294-3.482 7.775-7.778 7.775-4.294 0-7.776-3.481-7.776-7.775 0-4.297 3.482-7.778 7.776-7.778 4.296 0 7.778 3.481 7.778 7.778"/>
        <path fill="#FCD976" d="M272.243 7.776c0 4.295-3.482 7.777-7.777 7.777s-7.777-3.482-7.777-7.777S260.171 0 264.466 0s7.777 3.48 7.777 7.776M516 440.952c0 4.296-3.481 7.778-7.777 7.778-4.294 0-7.776-3.482-7.776-7.778 0-4.294 3.482-7.776 7.776-7.776 4.296 0 7.777 3.482 7.777 7.776"/>
        <path stroke="#71A0D5" stroke-width="3.296" d="M280.526 474.637L256.14 474.637M252.507 474.637L240.315 474.637M486.51 52.788L496.741 52.788M499.379 52.788L508.224 52.788M474.631 52.788L483.476 52.788M519.969 224.865L555.901 224.865M333.434 42.174L336.833 45.574M339.231 47.972L342.631 51.371M342.631 42.174L339.231 45.574M336.833 47.972L333.434 51.371M47.909 156.61L51.308 160.009M53.707 162.408L57.106 165.807M57.106 156.61L53.707 160.009M51.308 162.408L47.909 165.807M303.975 368.611L307.375 372.01M309.773 374.408L313.172 377.807M313.172 368.611L309.773 372.01M307.375 374.408L303.975 377.807M141.564 90.006c0 2.33-1.888 4.22-4.219 4.22-2.33 0-4.22-1.89-4.22-4.22s1.89-4.22 4.22-4.22 4.22 1.89 4.22 4.22zM420.011 109.8c0 2.33-1.888 4.22-4.219 4.22-2.33 0-4.218-1.89-4.218-4.22s1.888-4.22 4.218-4.22c2.331 0 4.22 1.89 4.22 4.22zM0 330.022L24.384 330.022M28.019 330.022L40.212 330.022"/>
        <path stroke="#71A0D5" stroke-width="3.558" d="M538 382.061L566.405 382.061M570.641 382.061L584.844 382.061"/>
    </g>
</svg>
